<svg width="146" height="26" viewBox="0 0 146 26" fill="none" xmlns="http://www.w3.org/2000/svg">
<path d="M10.3016 17.2861V10.0134H12.759C13.3295 10.0134 13.7959 10.1164 14.1581 10.3224C14.5227 10.526 14.7926 10.8018 14.9678 11.1498C15.143 11.4978 15.2306 11.886 15.2306 12.3145C15.2306 12.743 15.143 13.1325 14.9678 13.4829C14.795 13.8332 14.5274 14.1126 14.1652 14.3209C13.803 14.5269 13.339 14.6299 12.7732 14.6299H11.0118V13.8486H12.7448C13.1354 13.8486 13.4491 13.7812 13.6858 13.6462C13.9226 13.5113 14.0942 13.329 14.2007 13.0993C14.3096 12.8673 14.3641 12.6057 14.3641 12.3145C14.3641 12.0233 14.3096 11.7629 14.2007 11.5333C14.0942 11.3037 13.9214 11.1237 13.6823 10.9935C13.4432 10.8609 13.1259 10.7947 12.7306 10.7947H11.1823V17.2861H10.3016ZM18.6929 17.3998C18.2005 17.3998 17.7684 17.2826 17.3968 17.0482C17.0274 16.8138 16.7386 16.4859 16.5303 16.0645C16.3243 15.6431 16.2213 15.1507 16.2213 14.5873C16.2213 14.0191 16.3243 13.5231 16.5303 13.0993C16.7386 12.6756 17.0274 12.3465 17.3968 12.1121C17.7684 11.8778 18.2005 11.7606 18.6929 11.7606C19.1853 11.7606 19.6162 11.8778 19.9855 12.1121C20.3572 12.3465 20.646 12.6756 20.852 13.0993C21.0603 13.5231 21.1645 14.0191 21.1645 14.5873C21.1645 15.1507 21.0603 15.6431 20.852 16.0645C20.646 16.4859 20.3572 16.8138 19.9855 17.0482C19.6162 17.2826 19.1853 17.3998 18.6929 17.3998ZM18.6929 16.6469C19.067 16.6469 19.3747 16.551 19.6162 16.3593C19.8577 16.1675 20.0364 15.9154 20.1524 15.6029C20.2684 15.2904 20.3264 14.9519 20.3264 14.5873C20.3264 14.2227 20.2684 13.883 20.1524 13.5681C20.0364 13.2532 19.8577 12.9987 19.6162 12.8046C19.3747 12.6105 19.067 12.5134 18.6929 12.5134C18.3189 12.5134 18.0111 12.6105 17.7696 12.8046C17.5281 12.9987 17.3494 13.2532 17.2334 13.5681C17.1174 13.883 17.0594 14.2227 17.0594 14.5873C17.0594 14.9519 17.1174 15.2904 17.2334 15.6029C17.3494 15.9154 17.5281 16.1675 17.7696 16.3593C18.0111 16.551 18.3189 16.6469 18.6929 16.6469ZM23.4941 17.2861L21.8321 11.8316H22.7128L23.8918 16.0077H23.9486L25.1134 11.8316H26.0083L27.1588 15.9935H27.2156L28.3946 11.8316H29.2753L27.6134 17.2861H26.7895L25.5963 13.0958H25.5111L24.3179 17.2861H23.4941ZM32.4846 17.3998C31.9591 17.3998 31.5057 17.2838 31.1246 17.0518C30.7458 16.8174 30.4534 16.4907 30.2474 16.0716C30.0438 15.6502 29.942 15.1602 29.942 14.6015C29.942 14.0428 30.0438 13.5503 30.2474 13.1242C30.4534 12.6957 30.7398 12.3619 31.1068 12.1228C31.4761 11.8813 31.907 11.7606 32.3994 11.7606C32.6835 11.7606 32.964 11.8079 33.241 11.9026C33.518 11.9973 33.7702 12.1512 33.9974 12.3643C34.2247 12.575 34.4058 12.8543 34.5407 13.2023C34.6757 13.5503 34.7432 13.9788 34.7432 14.4878V14.843H30.5386V14.1185H33.8909C33.8909 13.8108 33.8293 13.5361 33.7062 13.2947C33.5855 13.0532 33.4127 12.8626 33.1878 12.7229C32.9652 12.5832 32.7024 12.5134 32.3994 12.5134C32.0656 12.5134 31.7768 12.5963 31.5329 12.762C31.2915 12.9253 31.1056 13.1384 30.9754 13.4012C30.8452 13.664 30.7801 13.9457 30.7801 14.2464V14.7293C30.7801 15.1412 30.8511 15.4904 30.9932 15.7769C31.1376 16.061 31.3376 16.2776 31.5933 16.4268C31.849 16.5735 32.1461 16.6469 32.4846 16.6469C32.7048 16.6469 32.9037 16.6162 33.0812 16.5546C33.2612 16.4907 33.4162 16.396 33.5464 16.2705C33.6766 16.1427 33.7773 15.984 33.8483 15.7947L34.6579 16.0219C34.5727 16.2965 34.4295 16.538 34.2282 16.7464C34.027 16.9523 33.7784 17.1133 33.4825 17.2293C33.1866 17.343 32.854 17.3998 32.4846 17.3998ZM36.018 17.2861V11.8316H36.8277V12.6555H36.8845C36.9839 12.3856 37.1639 12.1666 37.4243 11.9985C37.6847 11.8304 37.9782 11.7464 38.305 11.7464C38.3665 11.7464 38.4434 11.7475 38.5358 11.7499C38.6281 11.7523 38.6979 11.7558 38.7453 11.7606V12.6128C38.7169 12.6057 38.6518 12.5951 38.55 12.5809C38.4506 12.5643 38.3452 12.556 38.2339 12.556C37.9688 12.556 37.732 12.6117 37.5237 12.7229C37.3177 12.8318 37.1544 12.9833 37.0336 13.1775C36.9153 13.3692 36.8561 13.5882 36.8561 13.8344V17.2861H36.018ZM41.8596 17.3998C41.3341 17.3998 40.8807 17.2838 40.4996 17.0518C40.1208 16.8174 39.8284 16.4907 39.6224 16.0716C39.4188 15.6502 39.317 15.1602 39.317 14.6015C39.317 14.0428 39.4188 13.5503 39.6224 13.1242C39.8284 12.6957 40.1148 12.3619 40.4818 12.1228C40.8511 11.8813 41.282 11.7606 41.7744 11.7606C42.0585 11.7606 42.339 11.8079 42.616 11.9026C42.893 11.9973 43.1452 12.1512 43.3724 12.3643C43.5997 12.575 43.7808 12.8543 43.9157 13.2023C44.0507 13.5503 44.1182 13.9788 44.1182 14.4878V14.843H39.9136V14.1185H43.2659C43.2659 13.8108 43.2043 13.5361 43.0812 13.2947C42.9605 13.0532 42.7877 12.8626 42.5628 12.7229C42.3402 12.5832 42.0774 12.5134 41.7744 12.5134C41.4406 12.5134 41.1518 12.5963 40.9079 12.762C40.6665 12.9253 40.4806 13.1384 40.3504 13.4012C40.2202 13.664 40.1551 13.9457 40.1551 14.2464V14.7293C40.1551 15.1412 40.2261 15.4904 40.3682 15.7769C40.5126 16.061 40.7126 16.2776 40.9683 16.4268C41.224 16.5735 41.5211 16.6469 41.8596 16.6469C42.0798 16.6469 42.2787 16.6162 42.4562 16.5546C42.6362 16.4907 42.7912 16.396 42.9214 16.2705C43.0516 16.1427 43.1523 15.984 43.2233 15.7947L44.0329 16.0219C43.9477 16.2965 43.8045 16.538 43.6032 16.7464C43.402 16.9523 43.1534 17.1133 42.8575 17.2293C42.5616 17.343 42.229 17.3998 41.8596 17.3998ZM47.4527 17.3998C46.9981 17.3998 46.5969 17.2849 46.2488 17.0553C45.9008 16.8233 45.6286 16.4966 45.4321 16.0752C45.2356 15.6514 45.1373 15.1507 45.1373 14.5731C45.1373 14.0001 45.2356 13.503 45.4321 13.0816C45.6286 12.6602 45.902 12.3347 46.2524 12.105C46.6028 11.8754 47.0076 11.7606 47.4669 11.7606C47.822 11.7606 48.1025 11.8198 48.3085 11.9381C48.5168 12.0541 48.6755 12.1867 48.7844 12.3358C48.8956 12.4826 48.982 12.6034 49.0436 12.6981H49.1146V10.0134H49.9527V17.2861H49.143V16.4481H49.0436C48.982 16.5475 48.8944 16.673 48.7808 16.8245C48.6672 16.9736 48.505 17.1074 48.2943 17.2258C48.0836 17.3418 47.8031 17.3998 47.4527 17.3998ZM47.5663 16.6469C47.9025 16.6469 48.1866 16.5593 48.4186 16.3841C48.6506 16.2066 48.827 15.9616 48.9477 15.6491C49.0684 15.3342 49.1288 14.9708 49.1288 14.5589C49.1288 14.1517 49.0696 13.7954 48.9513 13.49C48.8329 13.1822 48.6577 12.9431 48.4257 12.7726C48.1937 12.5998 47.9072 12.5134 47.5663 12.5134C47.2112 12.5134 46.9153 12.6046 46.6785 12.7868C46.4442 12.9668 46.2678 13.2118 46.1494 13.5219C46.0334 13.8297 45.9754 14.1753 45.9754 14.5589C45.9754 14.9471 46.0346 15.2999 46.153 15.6171C46.2737 15.932 46.4513 16.1829 46.6856 16.3699C46.9224 16.5546 47.2159 16.6469 47.5663 16.6469ZM54.5301 17.2861V10.0134H55.3682V12.6981H55.4392C55.5007 12.6034 55.586 12.4826 55.6949 12.3358C55.8061 12.1867 55.9648 12.0541 56.1707 11.9381C56.3791 11.8198 56.6608 11.7606 57.0159 11.7606C57.4752 11.7606 57.88 11.8754 58.2304 12.105C58.5808 12.3347 58.8542 12.6602 59.0507 13.0816C59.2472 13.503 59.3454 14.0001 59.3454 14.5731C59.3454 15.1507 59.2472 15.6514 59.0507 16.0752C58.8542 16.4966 58.5819 16.8233 58.2339 17.0553C57.8859 17.2849 57.4846 17.3998 57.0301 17.3998C56.6797 17.3998 56.3992 17.3418 56.1885 17.2258C55.9778 17.1074 55.8156 16.9736 55.702 16.8245C55.5883 16.673 55.5007 16.5475 55.4392 16.4481H55.3398V17.2861H54.5301ZM55.354 14.5589C55.354 14.9708 55.4143 15.3342 55.5351 15.6491C55.6558 15.9616 55.8322 16.2066 56.0642 16.3841C56.2962 16.5593 56.5803 16.6469 56.9165 16.6469C57.2668 16.6469 57.5592 16.5546 57.7936 16.3699C58.0303 16.1829 58.2079 15.932 58.3263 15.6171C58.447 15.2999 58.5074 14.9471 58.5074 14.5589C58.5074 14.1753 58.4482 13.8297 58.3298 13.5219C58.2138 13.2118 58.0374 12.9668 57.8007 12.7868C57.5663 12.6046 57.2716 12.5134 56.9165 12.5134C56.5756 12.5134 56.2891 12.5998 56.0571 12.7726C55.8251 12.9431 55.6499 13.1822 55.5315 13.49C55.4131 13.7954 55.354 14.1517 55.354 14.5589ZM60.9719 19.3316C60.8298 19.3316 60.7032 19.3198 60.5919 19.2961C60.4806 19.2748 60.4037 19.2535 60.3611 19.2322L60.5741 18.4935C60.7777 18.5456 60.9577 18.5645 61.1139 18.5503C61.2702 18.5361 61.4086 18.4663 61.5294 18.3408C61.6525 18.2177 61.7649 18.0177 61.8667 17.7407L62.023 17.3145L60.0059 11.8316H60.915L62.4207 16.1782H62.4775L63.9832 11.8316H64.8923L62.577 18.0816C62.4728 18.3633 62.3438 18.5965 62.1899 18.7812C62.036 18.9682 61.8573 19.1067 61.6537 19.1966C61.4524 19.2866 61.2252 19.3316 60.9719 19.3316Z" fill="#94A3B8"/>
<path d="M77.6942 11.3154C76.8863 11.3154 76.1164 11.698 75.6855 12.2918C75.2396 11.6675 74.5014 11.3154 73.6148 11.3154C73.0456 11.3154 72.5024 11.4999 72.0907 11.8223V11.3187H70.5364V17.534H72.0907V14.1318C72.0907 13.2166 72.5428 12.7125 73.3639 12.7125C74.1778 12.7125 74.6264 13.2166 74.6264 14.1318V17.534H76.1702V14.1318C76.1702 13.2166 76.6222 12.7125 77.4432 12.7125C78.2572 12.7125 78.7057 13.2166 78.7057 14.1318V17.534H80.2494V13.9542C80.2494 12.3511 79.2465 11.3154 77.6942 11.3154Z" fill="#001D3D"/>
<path d="M84.4045 11.3154C82.6203 11.3154 81.3252 12.6233 81.3252 14.4252C81.3252 16.2624 82.5702 17.5454 84.3529 17.5454C86.1671 17.5454 87.4838 16.2333 87.4838 14.4252C87.4838 12.6233 86.1886 11.3154 84.4045 11.3154ZM84.3529 16.1627C83.6425 16.1627 82.8833 15.7062 82.8833 14.4253C82.8833 13.6286 83.2763 12.6982 84.3837 12.6982C85.4415 12.6982 85.915 13.5656 85.915 14.4253C85.9152 15.6254 85.1305 16.1627 84.353 16.1627H84.3529Z" fill="#001D3D"/>
<path d="M108.137 11.1832C108.137 10.6176 108.317 10.454 108.939 10.454H109.12V9.09863H108.939C107.324 9.09863 106.572 9.76081 106.572 11.1832V11.3194H105.892V12.654H106.572V17.5347H108.137V12.654H109.204V11.3194H108.137V11.1832Z" fill="#001D3D"/>
<path d="M111.838 11.3193H110.284V17.5345H111.838V11.3193Z" fill="#001D3D"/>
<path d="M111.071 9.1192C110.884 9.11712 110.7 9.17071 110.543 9.27323C110.387 9.37571 110.264 9.52248 110.191 9.69483C110.118 9.86722 110.098 10.0575 110.133 10.2413C110.168 10.4252 110.257 10.5945 110.389 10.7276C110.52 10.8608 110.689 10.9518 110.872 10.9891C111.056 11.0264 111.246 11.0083 111.419 10.9371C111.593 10.8659 111.741 10.7449 111.845 10.5894C111.949 10.4339 112.005 10.2508 112.005 10.0636C112.006 9.9401 111.983 9.81757 111.937 9.7031C111.89 9.58858 111.822 9.48445 111.735 9.39663C111.648 9.30881 111.545 9.23907 111.431 9.19146C111.317 9.14382 111.194 9.11927 111.071 9.1192Z" fill="#001D3D"/>
<path d="M116.002 11.3154C115.428 11.3154 114.881 11.5001 114.468 11.8228V11.3187H112.913V17.534H114.468V14.1318C114.468 13.2166 114.92 12.7125 115.74 12.7125C116.555 12.7125 117.003 13.2166 117.003 14.1318V17.534H118.547V13.9542C118.547 12.3511 117.548 11.3154 116.002 11.3154Z" fill="#001D3D"/>
<path d="M95.7173 11.3154C94.9093 11.3154 94.1395 11.698 93.7085 12.2918C93.2625 11.6675 92.5245 11.3154 91.6378 11.3154C91.0685 11.3154 90.5256 11.4999 90.1138 11.8223V11.3187H88.5596V17.534H90.1138V14.1318C90.1138 13.2166 90.5659 12.7125 91.3868 12.7125C92.2009 12.7125 92.6493 13.2166 92.6493 14.1318V17.534H94.1931V14.1318C94.1931 13.2166 94.6453 12.7125 95.4662 12.7125C96.2804 12.7125 96.7288 13.2166 96.7288 14.1318V17.534H98.2725V13.9542C98.2725 12.3511 97.2695 11.3154 95.7173 11.3154Z" fill="#001D3D"/>
<path d="M102.428 11.3154C100.643 11.3154 99.3484 12.6233 99.3484 14.4252C99.3484 16.2624 100.593 17.5454 102.376 17.5454C104.19 17.5454 105.507 16.2333 105.507 14.4252C105.507 12.6233 104.212 11.3154 102.428 11.3154ZM102.376 16.1627C101.666 16.1627 100.907 15.7062 100.907 14.4253C100.907 13.6286 101.299 12.6982 102.407 12.6982C103.465 12.6982 103.938 13.5656 103.938 14.4253C103.938 15.6254 103.154 16.1627 102.376 16.1627Z" fill="#001D3D"/>
<path d="M129.387 16.6411C129.561 16.7811 129.745 16.9096 129.939 17.0255C130.99 17.6542 132.24 17.8613 133.438 17.6048C134.636 17.3484 135.691 16.6476 136.393 15.6436C137.094 14.6397 137.389 13.4072 137.218 12.1945C137.046 10.9819 136.422 9.87932 135.47 9.10893C134.517 8.33854 133.309 7.95767 132.087 8.04303C130.865 8.1284 129.721 8.67364 128.885 9.56895C128.371 10.1197 127.997 10.7776 127.786 11.4876H129.855C129.972 11.2691 130.118 11.0648 130.291 10.8804C130.794 10.3406 131.484 10.0118 132.221 9.9604C132.958 9.90892 133.687 10.1386 134.26 10.603C134.834 11.0675 135.211 11.7323 135.314 12.4634C135.418 13.1945 135.24 13.9376 134.817 14.543C134.394 15.1483 133.758 15.5708 133.035 15.7254C132.314 15.88 131.559 15.7552 130.926 15.3761C130.714 15.2496 130.522 15.098 130.351 14.9258C130.174 15.4165 129.933 15.8845 129.631 16.3168C129.553 16.4279 129.472 16.536 129.387 16.6411Z" fill="#0068D6"/>
<path d="M128.046 9.12895C127.382 8.59563 126.584 8.24522 125.732 8.12123C124.596 7.95614 123.439 8.20335 122.471 8.81805C121.502 9.43279 120.786 10.3743 120.452 11.4717C120.118 12.5692 120.189 13.75 120.651 14.7998C121.113 15.8497 121.936 16.6992 122.972 17.1942C124.006 17.6892 125.184 17.7968 126.292 17.4977C127.4 17.1986 128.363 16.5124 129.008 15.5637C129.653 14.615 129.937 13.4666 129.807 12.3269L129.807 12.3269L129.811 12.311H125.677L124.75 14.2188H127.598C127.548 14.3128 127.493 14.4044 127.433 14.4931C127.044 15.0651 126.463 15.4788 125.795 15.6591C125.128 15.8395 124.417 15.7746 123.793 15.4762C123.169 15.1777 122.673 14.6656 122.394 14.0326C122.115 13.3995 122.073 12.6876 122.274 12.026C122.476 11.3643 122.907 10.7966 123.492 10.426C124.076 10.0554 124.773 9.90632 125.457 10.0059C126.059 10.0933 126.615 10.3678 127.05 10.7871C127.286 10.1809 127.623 9.62039 128.046 9.12895Z" fill="#0068D6"/>
</svg>
