<svg xmlns="http://www.w3.org/2000/svg" width="238" height="41" viewBox="0 0 238 41" fill="none">
  <g clip-path="url(#clip0_320_467)">
    <path
      d="M21.4772 1.38551C21.4772 1.18364 21.4308 0.984221 21.3413 0.801212C21.2518 0.618204 21.1215 0.456022 20.9593 0.326015C20.7971 0.196009 20.6071 0.101318 20.4025 0.0485678C20.1978 -0.00418214 19.9836 -0.0137168 19.7747 0.020631C18.0103 0.336216 16.3672 1.09726 15.0172 2.22424C13.6672 3.35123 12.6598 4.80279 12.1002 6.42727L7.17501 20.4896H1.76335C1.29982 20.4885 0.854558 20.6616 0.52436 20.9714C0.194163 21.2812 0.00572112 21.7026 0 22.144L0 39.602C8.21596e-05 39.8044 0.0465927 40.0043 0.136279 40.1878C0.225966 40.3713 0.356664 40.534 0.519233 40.6644C0.681803 40.7948 0.87232 40.8898 1.07746 40.9427C1.2826 40.9957 1.49742 41.0053 1.70689 40.971C3.48619 40.6542 5.14337 39.8878 6.50497 38.752C7.86657 37.6162 8.88253 36.1527 9.44651 34.5147L14.3544 20.4979H21.5294L21.4772 1.38551Z"
      fill="#001D3D"></path>
    <path
      d="M46.6461 27.3306C45.226 27.3306 43.8378 27.7317 42.6571 28.4831C41.4763 29.2345 40.5561 30.3025 40.0129 31.552C39.4696 32.8015 39.3277 34.1764 39.6051 35.5027C39.8824 36.829 40.5666 38.0472 41.5711 39.0032C42.5756 39.9591 43.8552 40.6099 45.2482 40.8733C46.6411 41.1366 48.0848 41.0006 49.3966 40.4825C50.7084 39.9644 51.8293 39.0875 52.6177 37.9627C53.406 36.8378 53.8264 35.5156 53.8255 34.1632C53.8255 33.2656 53.6398 32.3768 53.2789 31.5475C52.9181 30.7183 52.3892 29.9649 51.7225 29.3304C51.0557 28.6958 50.2643 28.1926 49.3932 27.8495C48.5222 27.5064 47.5888 27.33 46.6461 27.3306Z"
      fill="#93C7E7"></path>
    <path
      d="M42.9979 1.38557C42.9976 1.18453 42.9513 0.98595 42.8624 0.803625C42.7734 0.621301 42.6439 0.459595 42.4827 0.329733C42.3215 0.199871 42.1326 0.104963 41.9291 0.0515974C41.7256 -0.00176841 41.5122 -0.0123137 41.304 0.0206936C39.5396 0.336278 37.8965 1.09732 36.5465 2.22431C35.1965 3.35129 34.1891 4.80286 33.6295 6.42733L28.7043 20.4897H21.5293V39.6021C21.5294 39.8045 21.5759 40.0044 21.6656 40.1879C21.7553 40.3714 21.886 40.534 22.0485 40.6644C22.2111 40.7948 22.4016 40.8898 22.6068 40.9428C22.8119 40.9957 23.0267 41.0054 23.2362 40.9711C25.0155 40.6543 26.6727 39.8879 28.0343 38.752C29.3959 37.6162 30.4118 36.1527 30.9758 34.5148L35.8837 20.4979H41.291C41.5229 20.4979 41.7526 20.4544 41.9668 20.3697C42.181 20.2851 42.3756 20.161 42.5394 20.0047C42.7032 19.8483 42.833 19.6627 42.9213 19.4585C43.0097 19.2543 43.0549 19.0355 43.0543 18.8146L42.9979 1.38557Z"
      fill="#001D3D"></path>
    <path
      d="M94.2479 13.777C92.8848 13.7658 91.5375 14.0554 90.3115 14.623C89.0855 15.1906 88.0142 16.0208 87.1815 17.0485C85.6136 14.9557 83.012 13.777 79.8935 13.777C77.958 13.7591 76.0717 14.3574 74.534 15.4768V13.7894H69.0833V34.614H74.5514V23.2153C74.5514 20.1464 76.141 18.4589 79.0292 18.4589C81.9175 18.4589 83.4724 20.1464 83.4724 23.2153V34.614H88.9014V23.2153C88.9014 20.1464 90.4953 18.4589 93.3836 18.4589C96.2718 18.4589 97.8224 20.1464 97.8224 23.2153V34.614H103.256V22.6197C103.256 17.2429 99.7247 13.777 94.2653 13.777"
      fill="#001D3D"></path>
    <path
      d="M117.875 13.777C111.599 13.777 107.043 18.157 107.043 24.1955C107.043 30.354 111.421 34.6513 117.693 34.6513C124.077 34.6513 128.707 30.2547 128.707 24.1955C128.707 18.1363 124.151 13.777 117.875 13.777ZM117.701 30.019C115.204 30.019 112.533 28.4887 112.533 24.1955C112.533 21.5278 113.914 18.4051 117.81 18.4051C121.532 18.4051 123.2 21.3003 123.2 24.1955C123.2 28.2198 120.438 30.019 117.701 30.019Z"
      fill="#001D3D"></path>
    <path
      d="M201.374 13.3303C201.374 11.436 202.008 10.8859 204.197 10.8859H204.835V6.33632H204.197C198.516 6.33632 195.871 8.55734 195.871 13.322V13.7811H193.478V18.2604H195.879V34.614H201.382V18.2604H205.139V13.7894H201.382L201.374 13.3303Z"
      fill="#001D3D"></path>
    <path d="M214.395 13.7894H208.927V34.614H214.395V13.7894Z" fill="#001D3D"></path>
    <path
      d="M211.697 6.41491C211.038 6.40835 210.391 6.58867 209.839 6.93296C209.287 7.27726 208.856 7.76998 208.599 8.34852C208.342 8.92706 208.271 9.5653 208.396 10.1821C208.521 10.799 208.835 11.3666 209.299 11.8128C209.764 12.259 210.357 12.5637 211.003 12.6882C211.65 12.8127 212.321 12.7513 212.931 12.5119C213.54 12.2725 214.062 11.8658 214.428 11.3436C214.795 10.8213 214.99 10.2071 214.99 9.57893C214.994 9.165 214.912 8.7543 214.749 8.37061C214.586 7.98692 214.345 7.63785 214.039 7.3436C213.733 7.04936 213.369 6.81577 212.968 6.65636C212.567 6.49695 212.136 6.41488 211.702 6.41491"
      fill="#001D3D"></path>
    <path
      d="M229.049 13.777C227.101 13.7578 225.202 14.3558 223.65 15.4769V13.7894H218.182V34.6141H223.65V23.2153C223.65 20.1464 225.24 18.4589 228.128 18.4589C231.016 18.4589 232.571 20.1464 232.571 23.2153V34.6141H238.009V22.6197C238.009 17.2429 234.495 13.777 229.057 13.777"
      fill="#001D3D"></path>
    <path
      d="M157.659 13.777C156.296 13.7658 154.949 14.0554 153.723 14.623C152.497 15.1906 151.425 16.0208 150.593 17.0485C149.025 14.9557 146.427 13.777 143.309 13.777C141.372 13.7604 139.485 14.3585 137.945 15.4768V13.7894H132.494V34.614H137.963V23.2153C137.963 20.1464 139.552 18.4589 142.44 18.4589C145.329 18.4589 146.883 20.1464 146.883 23.2153V34.614H152.317V23.2153C152.317 20.1464 153.906 18.4589 156.795 18.4589C159.683 18.4589 161.238 20.1464 161.238 23.2153V34.614H166.667V22.6197C166.667 17.2429 163.14 13.777 157.676 13.777"
      fill="#001D3D"></path>
    <path
      d="M181.286 13.777C175.01 13.777 170.454 18.157 170.454 24.1955C170.454 30.354 174.832 34.6513 181.104 34.6513C187.488 34.6513 192.122 30.2547 192.122 24.1955C192.122 18.1363 187.566 13.777 181.264 13.777M181.112 30.019C178.615 30.019 175.944 28.4887 175.944 24.1955C175.944 21.5278 177.325 18.4051 181.221 18.4051C184.943 18.4051 186.611 21.3003 186.611 24.1955C186.611 28.2198 183.849 30.019 181.112 30.019Z"
      fill="#001D3D"></path>
  </g>
  <defs>
    <clipPath id="clip0_320_467">
      <rect width="238" height="41" fill="white"></rect>
    </clipPath>
  </defs>
</svg>