<svg viewBox="0 0 100 100" fill="none" xmlns="http://www.w3.org/2000/svg">
  <path opacity="0.4"
    d="M89.0612 49.9999C89.0612 71.5735 71.5723 89.0624 49.9987 89.0624C28.4251 89.0624 10.9362 71.5735 10.9362 49.9999C10.9362 28.4263 28.4251 10.9374 49.9987 10.9374C71.5723 10.9374 89.0612 28.4263 89.0612 49.9999Z"
    fill="#F2FAFF" stroke="#0067D6" stroke-width="5.20833" />
  <path
    d="M42.2406 59.2163L44.082 61.0578L45.9235 59.2163L67.3401 37.7997C67.4271 37.7127 67.5537 37.6562 67.707 37.6562C67.8603 37.6562 67.987 37.7127 68.0739 37.7997C68.1609 37.8866 68.2174 38.0133 68.2174 38.1666C68.2174 38.3199 68.1609 38.4465 68.0739 38.5335L44.4489 62.1585L46.1676 63.8772L44.4489 62.1585C44.3484 62.259 44.2169 62.3124 44.082 62.3124C43.9472 62.3124 43.8157 62.259 43.7151 62.1585L31.9235 50.3668C31.8365 50.2799 31.7799 50.1532 31.7799 49.9999C31.7799 49.8466 31.8365 49.72 31.9235 49.633C32.0104 49.5461 32.1371 49.4895 32.2904 49.4895C32.4437 49.4895 32.5703 49.5461 32.6573 49.633L42.2406 59.2163Z"
    fill="#0067D6" stroke="#0067D6" stroke-width="5.20833" />
</svg>