<svg width="36" height="36" viewBox="0 0 36 36" fill="none" xmlns="http://www.w3.org/2000/svg">
  <path opacity="0.4"
    d="M26.415 15.785H30.75C31.2989 15.785 31.75 16.2361 31.75 16.785V24.645C31.75 27.1998 30.8626 29.1513 29.4627 30.4662C28.0578 31.7856 26.0979 32.5 23.895 32.5H12.105C9.90211 32.5 7.94218 31.7856 6.5373 30.4662C5.13737 29.1513 4.25 27.1998 4.25 24.645V11.355C4.25 8.80016 5.13737 6.84866 6.5373 5.53383C7.94218 4.21436 9.90211 3.5 12.105 3.5H18.465C19.0139 3.5 19.465 3.95114 19.465 4.5V8.835C19.465 12.6661 22.5839 15.785 26.415 15.785Z"
    fill="#475569" stroke="#475569" />
  <path
    d="M26.1503 12.7148L26.1503 12.7147H26.145C24.1429 12.7147 22.52 11.1105 22.52 9.20974V3.97475C22.52 3.59619 23.0244 3.3462 23.3465 3.6683C24.8445 5.16636 27.0937 7.43607 29.0623 9.42259C30.01 10.379 30.8927 11.2697 31.5952 11.9771L31.5965 11.9783C31.8522 12.234 31.6964 12.7297 31.245 12.7297C29.549 12.7297 27.5721 12.7297 26.1503 12.7148ZM31.245 13.2297C32.1 13.2297 32.55 12.2247 31.95 11.6247C31.2483 10.9182 30.3662 10.028 29.4188 9.07195C27.4498 7.085 25.1988 4.81357 23.7 3.31475C23.085 2.69975 22.02 3.11975 22.02 3.97475V9.20974C22.02 11.3997 23.88 13.2147 26.145 13.2147C27.5699 13.2297 29.5498 13.2297 31.2447 13.2297H31.245Z"
    fill="#475569" stroke="#475569" />
  <mask id="path-3-inside-1_1522_38356" fill="white">
    <path
      d="M18.4199 22.08C17.9849 21.645 17.2649 21.645 16.8299 22.08L15.7499 23.16V16.875C15.7499 16.26 15.2399 15.75 14.6249 15.75C14.0099 15.75 13.4999 16.26 13.4999 16.875V23.16L12.4199 22.08C11.9849 21.645 11.2649 21.645 10.8299 22.08C10.3949 22.515 10.3949 23.235 10.8299 23.67L13.8299 26.67C13.8449 26.685 13.8599 26.685 13.8599 26.7C13.9499 26.79 14.0699 26.865 14.1899 26.925C14.3399 26.97 14.4749 27 14.6249 27C14.7749 27 14.9099 26.97 15.0449 26.91C15.1799 26.85 15.2999 26.775 15.4199 26.67L18.4199 23.67C18.8549 23.235 18.8549 22.515 18.4199 22.08Z" />
  </mask>
  <path
    d="M18.4199 22.08C17.9849 21.645 17.2649 21.645 16.8299 22.08L15.7499 23.16V16.875C15.7499 16.26 15.2399 15.75 14.6249 15.75C14.0099 15.75 13.4999 16.26 13.4999 16.875V23.16L12.4199 22.08C11.9849 21.645 11.2649 21.645 10.8299 22.08C10.3949 22.515 10.3949 23.235 10.8299 23.67L13.8299 26.67C13.8449 26.685 13.8599 26.685 13.8599 26.7C13.9499 26.79 14.0699 26.865 14.1899 26.925C14.3399 26.97 14.4749 27 14.6249 27C14.7749 27 14.9099 26.97 15.0449 26.91C15.1799 26.85 15.2999 26.775 15.4199 26.67L18.4199 23.67C18.8549 23.235 18.8549 22.515 18.4199 22.08Z"
    fill="#475569" />
  <path
    d="M16.8299 22.08L17.537 22.7871L17.537 22.7871L16.8299 22.08ZM15.7499 23.16H14.7499V25.5742L16.457 23.8671L15.7499 23.16ZM13.4999 23.16L12.7928 23.8671L14.4999 25.5742V23.16H13.4999ZM12.4199 22.08L11.7128 22.7871L11.7128 22.7871L12.4199 22.08ZM10.8299 23.67L11.537 22.9629H11.537L10.8299 23.67ZM13.8299 26.67L13.1228 27.3771L13.8299 26.67ZM13.8599 26.7H12.8599V27.1142L13.1528 27.4071L13.8599 26.7ZM14.1899 26.925L13.7427 27.8194L13.8199 27.858L13.9026 27.8828L14.1899 26.925ZM15.4199 26.67L16.0784 27.4226L16.1035 27.4007L16.127 27.3771L15.4199 26.67ZM18.4199 23.67L17.7128 22.9629L18.4199 23.67ZM19.127 21.3729C18.3015 20.5474 16.9483 20.5474 16.1228 21.3729L17.537 22.7871C17.5559 22.7682 17.5853 22.7538 17.6249 22.7538C17.6645 22.7538 17.6939 22.7682 17.7128 22.7871L19.127 21.3729ZM16.1228 21.3729L15.0428 22.4529L16.457 23.8671L17.537 22.7871L16.1228 21.3729ZM16.7499 23.16V16.875H14.7499V23.16H16.7499ZM16.7499 16.875C16.7499 15.7077 15.7922 14.75 14.6249 14.75V16.75C14.651 16.75 14.6824 16.7604 14.7109 16.789C14.7395 16.8176 14.7499 16.8489 14.7499 16.875H16.7499ZM14.6249 14.75C13.4576 14.75 12.4999 15.7077 12.4999 16.875H14.4999C14.4999 16.8489 14.5103 16.8176 14.5389 16.789C14.5675 16.7604 14.5988 16.75 14.6249 16.75V14.75ZM12.4999 16.875V23.16H14.4999V16.875H12.4999ZM14.207 22.4529L13.127 21.3729L11.7128 22.7871L12.7928 23.8671L14.207 22.4529ZM13.127 21.3729C12.3015 20.5474 10.9483 20.5474 10.1228 21.3729L11.537 22.7871C11.5559 22.7682 11.5853 22.7538 11.6249 22.7538C11.6645 22.7538 11.6939 22.7682 11.7128 22.7871L13.127 21.3729ZM10.1228 21.3729C9.29728 22.1984 9.29728 23.5516 10.1228 24.3771L11.537 22.9629C11.5181 22.944 11.5037 22.9146 11.5037 22.875C11.5037 22.8354 11.5181 22.806 11.537 22.7871L10.1228 21.3729ZM10.1228 24.3771L13.1228 27.3771L14.537 25.9629L11.537 22.9629L10.1228 24.3771ZM13.1228 27.3771C13.1869 27.4412 13.247 27.4848 13.2863 27.511C13.3038 27.5227 13.3187 27.5318 13.3202 27.5327C13.3269 27.5369 13.3119 27.5278 13.2959 27.5171C13.2693 27.4994 13.1454 27.4179 13.0381 27.2646C12.9112 27.0832 12.8599 26.8815 12.8599 26.7H14.8599C14.8599 26.511 14.8068 26.3036 14.6766 26.1176C14.5659 25.9596 14.4374 25.8744 14.4052 25.8529C14.3942 25.8456 14.3852 25.8399 14.3801 25.8367C14.3775 25.8351 14.3753 25.8337 14.374 25.8329C14.3733 25.8325 14.3728 25.8321 14.3724 25.8319C14.3723 25.8318 14.3721 25.8317 14.372 25.8316C14.3719 25.8316 14.3718 25.8315 14.3718 25.8315C14.37 25.8304 14.3815 25.8375 14.3956 25.8468C14.4278 25.8683 14.4804 25.9063 14.537 25.9629L13.1228 27.3771ZM13.1528 27.4071C13.3498 27.6041 13.5756 27.7359 13.7427 27.8194L14.6371 26.0306C14.6058 26.0149 14.5831 26.0015 14.5684 25.9917C14.5528 25.9813 14.5548 25.9807 14.567 25.9929L13.1528 27.4071ZM13.9026 27.8828C14.0929 27.9399 14.3346 28 14.6249 28V26C14.6152 26 14.5869 26.0001 14.4773 25.9672L13.9026 27.8828ZM14.6249 28C14.92 28 15.193 27.9385 15.4511 27.8238L14.6388 25.9962C14.6334 25.9986 14.6303 25.9997 14.6292 26C14.6281 26.0004 14.6282 26.0003 14.6292 26.0001C14.6302 25.9999 14.6309 25.9998 14.6308 25.9998C14.6308 25.9998 14.6289 26 14.6249 26V28ZM15.4511 27.8238C15.6756 27.724 15.8811 27.5953 16.0784 27.4226L14.7614 25.9174C14.7188 25.9547 14.6843 25.976 14.6388 25.9962L15.4511 27.8238ZM16.127 27.3771L19.127 24.3771L17.7128 22.9629L14.7128 25.9629L16.127 27.3771ZM19.127 24.3771C19.9525 23.5516 19.9525 22.1984 19.127 21.3729L17.7128 22.7871C17.7317 22.806 17.7462 22.8354 17.7462 22.875C17.7462 22.9146 17.7317 22.944 17.7128 22.9629L19.127 24.3771Z"
    fill="#475569" mask="url(#path-3-inside-1_1522_38356)" />
</svg>