<svg viewBox="0 0 36 36" fill="none" xmlns="http://www.w3.org/2000/svg">
  <path fill-rule="evenodd" clip-rule="evenodd"
    d="M23.9134 0.666016C24.0652 2.11866 25.2936 3.251 26.7865 3.251C28.2793 3.251 29.5077 2.11866 29.6596 0.666016H33.2262C34.3896 0.666016 35.3327 1.60912 35.3327 2.7725V6.33882C33.8792 6.48987 32.7459 7.71864 32.7459 9.21209C32.7459 10.7055 33.8792 11.9343 35.3327 12.0854V15.1247C33.8793 15.2758 32.7462 16.5046 32.7462 17.9979C32.7462 19.4913 33.8793 20.72 35.3327 20.8712V23.9123C33.8793 24.0635 32.7462 25.2922 32.7462 26.7856C32.7462 28.2789 33.8793 29.5076 35.3327 29.6588V33.2262C35.3327 34.3896 34.3896 35.3327 33.2262 35.3327H29.66C29.5101 33.878 28.2808 32.7434 26.7865 32.7434C25.2921 32.7434 24.0628 33.878 23.9129 35.3327H20.8739C20.7238 33.8783 19.4946 32.744 18.0005 32.744C16.5063 32.744 15.2771 33.8783 15.127 35.3327H12.0838C11.9337 33.8783 10.7045 32.744 9.21036 32.744C7.71624 32.744 6.48704 33.8783 6.33688 35.3327H2.7725C1.60912 35.3327 0.666016 34.3896 0.666016 33.2262V29.6592C2.12113 29.5097 3.25615 28.2802 3.25615 26.7856C3.25615 25.2909 2.12113 24.0614 0.666016 23.9119V20.8716C2.12113 20.7221 3.25615 19.4925 3.25615 17.9979C3.25615 16.5033 2.12113 15.2738 0.666016 15.1243V12.0857C2.12106 11.9361 3.256 10.7067 3.256 9.21209C3.256 7.71753 2.12106 6.48805 0.666016 6.33848V2.7725C0.666016 1.60912 1.60912 0.666016 2.7725 0.666016H6.33718C6.48868 2.11905 7.71723 3.2518 9.21036 3.2518C10.7035 3.2518 11.932 2.11905 12.0835 0.666016H15.1273C15.2788 2.11905 16.5073 3.2518 18.0005 3.2518C19.4936 3.2518 20.7221 2.11905 20.8736 0.666016H23.9134ZM29.0751 6.56267H5.96403V29.6738H29.0751V6.56267Z"
    fill="#FBA733" />
  <path
    d="M10.6604 14.7806H12.5323C13.7709 14.7806 14.7786 13.7729 14.7786 12.5343V10.6623C14.7786 9.42372 13.7709 8.41602 12.5323 8.41602H10.6604C9.42176 8.41602 8.41406 9.42372 8.41406 10.6623V12.5343C8.41406 13.7729 9.42176 14.7806 10.6604 14.7806ZM9.91161 10.6623C9.91161 10.2495 10.2475 9.91356 10.6604 9.91356H12.5323C12.9452 9.91356 13.2811 10.2495 13.2811 10.6623V12.5343C13.2811 12.9471 12.9452 13.283 12.5323 13.283H10.6604C10.2475 13.283 9.91161 12.9471 9.91161 12.5343V10.6623Z"
    fill="#FBA733" />
  <path d="M24.8882 21.7051H23.3906V23.2026H24.8882V21.7051Z" fill="#FBA733" />
  <path d="M27.5854 21.7051H26.0879V24.7002H27.5854V21.7051Z" fill="#FBA733" />
  <path d="M23.3921 23.2051H21.8945V24.7026H23.3921V23.2051Z" fill="#FBA733" />
  <path d="M18.8999 27.5869V26.0893H20.36V27.5869H21.8576V26.0893H20.3974V24.5918H17.4023V27.5869H18.8999Z"
    fill="#FBA733" />
  <path d="M24.8882 27.5879V26.2026H26.0862V24.7051H23.3906V27.5879H24.8882Z" fill="#FBA733" />
  <path d="M12.3472 10.8496H10.8496V12.3472H12.3472V10.8496Z" fill="#FBA733" />
  <path d="M12.3472 23.6543H10.8496V25.1518H12.3472V23.6543Z" fill="#FBA733" />
  <path d="M17.4018 21.7441H15.9043V24.5895H17.4018V21.7441Z" fill="#FBA733" />
  <path d="M21.8921 18.7871H20.3945V20.2847H21.8921V18.7871Z" fill="#FBA733" />
  <path
    d="M12.5323 21.2227H10.6604C9.42176 21.2227 8.41406 22.2304 8.41406 23.469V25.3409C8.41406 26.5795 9.42176 27.5872 10.6604 27.5872H12.5323C13.7709 27.5872 14.7786 26.5795 14.7786 25.3409V23.469C14.7786 22.2304 13.7709 21.2227 12.5323 21.2227ZM13.2811 25.3409C13.2811 25.7538 12.9452 26.0897 12.5323 26.0897H10.6604C10.2475 26.0897 9.91161 25.7538 9.91161 25.3409V23.469C9.91161 23.0561 10.2475 22.7202 10.6604 22.7202H12.5323C12.9452 22.7202 13.2811 23.0561 13.2811 23.469V25.3409Z"
    fill="#FBA733" />
  <path d="M17.4018 12.7969V14.2944H15.9043V15.792H18.8994V12.7969H17.4018Z" fill="#FBA733" />
  <path d="M18.8999 8.41602H17.4023V9.91356H18.8999V8.41602Z" fill="#FBA733" />
  <path d="M20.396 11.2988H18.8984V12.7964H20.396V11.2988Z" fill="#FBA733" />
  <path
    d="M26.0877 15.791H23.3546V17.2886H21.8945V18.7861H23.3921V20.2462H27.5852V17.2511H26.0877V15.791ZM26.0877 18.7487H23.3921V17.2886H26.0877V18.7487Z"
    fill="#FBA733" />
  <path d="M20.396 15.791H18.8984V18.7861H20.396V15.791Z" fill="#FBA733" />
  <path
    d="M25.339 8.41602H23.467C22.2284 8.41602 21.2207 9.42372 21.2207 10.6623V12.5343C21.2207 13.7729 22.2284 14.7806 23.467 14.7806H25.339C26.5776 14.7806 27.5853 13.7729 27.5853 12.5343V10.6623C27.5853 9.42372 26.5776 8.41602 25.339 8.41602ZM26.0877 12.5343C26.0877 12.9471 25.7518 13.283 25.339 13.283H23.467C23.0542 13.283 22.7183 12.9471 22.7183 12.5343V10.6623C22.7183 10.2495 23.0542 9.91356 23.467 9.91356H25.339C25.7518 9.91356 26.0877 10.2495 26.0877 10.6623V12.5343Z"
    fill="#FBA733" />
  <path d="M25.1499 10.8496H23.6523V12.3472H25.1499V10.8496Z" fill="#FBA733" />
  <path d="M11.4097 15.791H9.91211V17.2886H11.4097V15.791Z" fill="#FBA733" />
  <path d="M9.91161 17.291H8.41406V20.2861H9.91161V17.291Z" fill="#FBA733" />
  <path d="M11.4102 18.7886H12.8703V20.2861H14.3678V18.7886H12.9077V17.291H11.4102V18.7886Z" fill="#FBA733" />
  <path d="M17.4018 9.91211H15.9043V12.7949H17.4018V9.91211Z" fill="#FBA733" />
  <path
    d="M17.4018 20.2861V21.7462H18.8994V23.2063H21.8945V21.7088H18.8994V20.2487H17.4018V17.291H15.9043V20.2861H17.4018Z"
    fill="#FBA733" />
  <path d="M15.9053 15.791H12.9102V17.2886H15.9053V15.791Z" fill="#FBA733" />
</svg>