<svg width="40" height="40" viewBox="0 0 40 40" fill="none" xmlns="http://www.w3.org/2000/svg">
<path fill-rule="evenodd" clip-rule="evenodd" d="M25.4574 3.99976C25.5963 5.34203 26.7308 6.38876 28.1098 6.38876C29.4888 6.38876 30.6233 5.34203 30.7622 3.99976H34.0551C35.129 3.99976 35.9995 4.87031 35.9995 5.9442V9.23591C34.657 9.37459 33.6101 10.5092 33.6101 11.8883C33.6101 13.2675 34.657 14.4021 35.9995 14.5408V17.3473C34.6568 17.4858 33.6096 18.6205 33.6096 19.9998C33.6096 21.3791 34.6568 22.5138 35.9995 22.6523V25.4583C34.6568 25.5967 33.6096 26.7314 33.6096 28.1107C33.6096 29.49 34.6568 30.6248 35.9995 30.7632V34.0553C35.9995 35.1292 35.129 35.9998 34.0551 35.9998H30.7623C30.6236 34.6573 29.489 33.6103 28.1098 33.6103C26.7307 33.6103 25.5961 34.6573 25.4574 35.9998H22.6511C22.5124 34.6573 21.3778 33.6103 19.9986 33.6103C18.6195 33.6103 17.4849 34.6573 17.3462 35.9998H14.5402C14.4016 34.6573 13.2669 33.6103 11.8878 33.6103C10.5086 33.6103 9.37401 34.6573 9.23536 35.9998H5.94396C4.87007 35.9998 3.99951 35.1292 3.99951 34.0553V30.7631C5.34147 30.6239 6.38786 29.4895 6.38786 28.1107C6.38786 26.732 5.34147 25.5976 3.99951 25.4584V22.6521C5.34147 22.5129 6.38786 21.3785 6.38786 19.9998C6.38786 18.621 5.34147 17.4866 3.99951 17.3475V14.5407C5.34164 14.4017 6.38821 13.2672 6.38821 11.8883C6.38821 10.5094 5.34164 9.37499 3.99951 9.23598V5.9442C3.99951 4.87031 4.87007 3.99976 5.94396 3.99976H9.2354C9.37427 5.34203 10.5088 6.38876 11.8878 6.38876C13.2668 6.38876 14.4013 5.34203 14.5402 3.99976H17.3463C17.4851 5.34203 18.6196 6.38876 19.9986 6.38876C21.3776 6.38876 22.5122 5.34203 22.651 3.99976H25.4574ZM30.2218 9.44419H8.8885V30.7775H30.2218V9.44419Z" fill="#FF82B6"/>
<path d="M13.225 17.0281H14.953C16.0963 17.0281 17.0265 16.0979 17.0265 14.9545V13.2266C17.0265 12.0833 16.0963 11.1531 14.953 11.1531H13.225C12.0817 11.1531 11.1515 12.0833 11.1515 13.2266V14.9545C11.1515 16.0979 12.0817 17.0281 13.225 17.0281ZM12.5338 13.2266C12.5338 12.8455 12.8439 12.5354 13.225 12.5354H14.953C15.3341 12.5354 15.6441 12.8455 15.6441 13.2266V14.9545C15.6441 15.3357 15.3341 15.6457 14.953 15.6457H13.225C12.8439 15.6457 12.5338 15.3357 12.5338 14.9545V13.2266Z" fill="#FF82B6"/>
<path d="M26.3584 23.4211H24.976V24.8035H26.3584V23.4211Z" fill="#FF82B6"/>
<path d="M28.846 23.4211H27.4637V26.1858H28.846V23.4211Z" fill="#FF82B6"/>
<path d="M24.9754 24.8031H23.593V26.1855H24.9754V24.8031Z" fill="#FF82B6"/>
<path d="M20.8286 28.8466V27.4643H22.1764V28.8466H23.5587V27.4643H22.2109V26.0819H19.4462V28.8466H20.8286Z" fill="#FF82B6"/>
<path d="M26.3584 28.8465V27.5678H27.4642V26.1854H24.976V28.8465H26.3584Z" fill="#FF82B6"/>
<path d="M14.7809 13.3987H13.3986V14.781H14.7809V13.3987Z" fill="#FF82B6"/>
<path d="M14.7809 25.2179H13.3986V26.6002H14.7809V25.2179Z" fill="#FF82B6"/>
<path d="M19.4456 23.4557H18.0633V26.0822H19.4456V23.4557Z" fill="#FF82B6"/>
<path d="M23.5935 20.7253H22.2111V22.1077H23.5935V20.7253Z" fill="#FF82B6"/>
<path d="M14.9531 22.9713H13.2251C12.0818 22.9713 11.1516 23.9015 11.1516 25.0448V26.7728C11.1516 27.9161 12.0818 28.8463 13.2251 28.8463H14.9531C16.0964 28.8463 17.0266 27.9161 17.0266 26.7728V25.0448C17.0266 23.9015 16.0964 22.9713 14.9531 22.9713ZM15.6443 26.7728C15.6443 27.1539 15.3342 27.464 14.9531 27.464H13.2251C12.844 27.464 12.534 27.1539 12.534 26.7728V25.0448C12.534 24.6637 12.844 24.3537 13.2251 24.3537H14.9531C15.3342 24.3537 15.6443 24.6637 15.6443 25.0448V26.7728Z" fill="#FF82B6"/>
<path d="M19.4456 15.1963V16.5786H18.0633V17.961H20.828V15.1963H19.4456Z" fill="#FF82B6"/>
<path d="M20.8286 11.1531H19.4462V12.5354H20.8286V11.1531Z" fill="#FF82B6"/>
<path d="M22.2105 13.8135H20.8281V15.1958H22.2105V13.8135Z" fill="#FF82B6"/>
<path d="M27.4636 17.9601H24.9408V19.3424H23.593V20.7248H24.9754V22.0726H28.846V19.3079H27.4636V17.9601ZM27.4636 20.6902H24.9754V19.3424H27.4636V20.6902Z" fill="#FF82B6"/>
<path d="M22.2105 17.9601H20.8281V20.7248H22.2105V17.9601Z" fill="#FF82B6"/>
<path d="M26.7735 11.1531H25.0455C23.9022 11.1531 22.972 12.0833 22.972 13.2266V14.9545C22.972 16.0979 23.9022 17.0281 25.0455 17.0281H26.7735C27.9168 17.0281 28.847 16.0979 28.847 14.9545V13.2266C28.847 12.0833 27.9168 11.1531 26.7735 11.1531ZM27.4646 14.9545C27.4646 15.3357 27.1546 15.6457 26.7735 15.6457H25.0455C24.6644 15.6457 24.3543 15.3357 24.3543 14.9545V13.2266C24.3543 12.8455 24.6644 12.5354 25.0455 12.5354H26.7735C27.1546 12.5354 27.4646 12.8455 27.4646 13.2266V14.9545Z" fill="#FF82B6"/>
<path d="M26.6001 13.3987H25.2178V14.781H26.6001V13.3987Z" fill="#FF82B6"/>
<path d="M13.917 17.9601H12.5346V19.3424H13.917V17.9601Z" fill="#FF82B6"/>
<path d="M12.534 19.343H11.1516V22.1077H12.534V19.343Z" fill="#FF82B6"/>
<path d="M13.9165 20.7254H15.2643V22.1077H16.6467V20.7254H15.2989V19.343H13.9165V20.7254Z" fill="#FF82B6"/>
<path d="M19.4456 12.5355H18.0633V15.1966H19.4456V12.5355Z" fill="#FF82B6"/>
<path d="M19.4456 22.1077V23.4555H20.828V24.8033H23.5927V23.421H20.828V22.0732H19.4456V19.343H18.0633V22.1077H19.4456Z" fill="#FF82B6"/>
<path d="M18.0641 17.9601H15.2994V19.3424H18.0641V17.9601Z" fill="#FF82B6"/>
</svg>
