<svg viewBox="0 0 52 52" fill="none" xmlns="http://www.w3.org/2000/svg">
  <g clip-path="url(#clip0_466_23849)">
    <rect x="9.02734" y="8.66602" width="34.6667" height="34.6667" rx="7.32714" fill="#25BCD6" />
    <path
      d="M28.2741 16.4376C28.9415 15.7826 29.8389 15.4184 30.7717 15.4239C31.7045 15.4294 32.5976 15.8043 33.2573 16.4672C33.917 17.1301 34.2901 18.0276 34.2959 18.9652C34.3017 19.9028 33.9396 20.8049 33.2881 21.476L32.8937 21.8709L33.0184 21.9963C33.562 22.5429 33.8674 23.2842 33.8674 24.0571C33.8674 24.83 33.562 25.5713 33.0184 26.1179L30.9304 28.2166C30.7937 28.3493 30.6106 28.4228 30.4205 28.4211C30.2304 28.4195 30.0485 28.3428 29.9141 28.2077C29.7797 28.0726 29.7035 27.8898 29.7018 27.6988C29.7002 27.5077 29.7732 27.3236 29.9053 27.1862L31.9932 25.0875C32.2651 24.8142 32.4178 24.4435 32.4178 24.0571C32.4178 23.6706 32.2651 23.3 31.9932 23.0267L31.8685 22.9013L23.682 31.1314C23.5887 31.2247 23.4719 31.2907 23.3442 31.3224L17.5443 32.7798C17.4183 32.8112 17.2863 32.8081 17.162 32.7708C17.0376 32.7334 16.9255 32.6632 16.8374 32.5675C16.7493 32.4718 16.6883 32.354 16.6609 32.2265C16.6335 32.099 16.6406 31.9664 16.6816 31.8427L18.494 26.3773C18.5294 26.2703 18.5889 26.173 18.668 26.0931L28.2741 16.4376ZM32.2615 17.468C31.8687 17.0738 31.3362 16.8523 30.7811 16.8523C30.2259 16.8523 29.6935 17.0738 29.3007 17.468L19.8149 27.0011L18.4737 31.044L22.7975 29.9582L32.2615 20.4456C32.6542 20.0507 32.8748 19.5152 32.8748 18.9568C32.8748 18.3985 32.6542 17.863 32.2615 17.468Z"
      fill="white" />
    <path
      d="M22.3897 35.7236C20.599 35.7236 19.1881 34.8987 18.25 34.1103L20.1118 33.6439C20.7584 34.0068 21.5226 34.2662 22.3882 34.2662C22.9769 34.2662 23.583 34.0272 24.2297 33.6002C24.8778 33.1731 25.5028 32.5989 26.1349 32.0043L26.2988 31.8483C26.857 31.3222 27.4356 30.7742 27.9895 30.3967C28.581 29.9916 29.3669 29.6243 30.1891 29.9435C30.7342 30.1533 31.088 30.541 31.336 31.0161C31.5694 31.4621 31.7304 32.0188 31.887 32.6266C31.9595 32.9035 32.0798 33.1717 32.2205 33.3524C32.2657 33.4161 32.3216 33.4713 32.3858 33.5156C32.422 33.5375 32.438 33.5375 32.4423 33.5375C32.6192 33.5375 32.9223 33.418 33.3558 33.1207C33.624 32.937 33.8546 32.7534 34.0837 32.5683C34.2258 32.4546 34.3693 32.3395 34.5216 32.2258C34.9261 31.9212 35.2756 31.7172 35.5322 31.5874C35.6635 31.5205 35.798 31.4602 35.9353 31.4067L35.9643 31.3951L35.9744 31.3921L35.9788 31.3907H35.9802L36.2122 32.0801L35.9817 31.3892C36.1631 31.3299 36.3604 31.3448 36.5309 31.4308C36.7014 31.5167 36.8314 31.6667 36.8926 31.8483C36.9538 32.0298 36.9414 32.2283 36.858 32.4008C36.7746 32.5732 36.627 32.7057 36.4471 32.7694L36.4413 32.7723C36.3551 32.8074 36.2704 32.8463 36.1876 32.8889C35.9991 32.9822 35.7221 33.1425 35.3901 33.3932C35.3046 33.4559 35.1944 33.5448 35.0668 33.6468C34.8043 33.8552 34.4737 34.119 34.1707 34.326C33.7212 34.6349 33.0963 34.9964 32.4423 34.9964C31.8101 34.9964 31.3534 34.6102 31.0706 34.2429C30.7952 33.8688 30.5957 33.4439 30.4834 32.9924C30.3239 32.3759 30.1992 31.9722 30.0542 31.6953C29.9237 31.4504 29.8077 31.3572 29.6685 31.3018C29.5496 31.2581 29.3133 31.2537 28.8058 31.602C28.3519 31.911 27.8561 32.3788 27.2717 32.9312L27.1267 33.0667C26.5018 33.657 25.7927 34.3128 25.0257 34.8186C24.2572 35.3257 23.3727 35.7236 22.3897 35.7236Z"
      fill="white" />
    <path
      d="M40.4468 15.8898C44.4191 15.8898 47.6691 12.6398 47.6691 8.66753C47.6691 4.69531 44.4191 1.44531 40.4468 1.44531C36.4746 1.44531 33.2246 4.69531 33.2246 8.66753C33.2246 12.6398 36.4746 15.8898 40.4468 15.8898Z"
      fill="#43936C" stroke="#43936C" stroke-width="2.16667" stroke-linecap="round" stroke-linejoin="round" />
    <path d="M37.377 8.66694L39.4208 10.7108L43.5158 6.62305" fill="#43936C" />
    <path d="M37.377 8.66694L39.4208 10.7108L43.5158 6.62305" stroke="#F7F7F7" stroke-width="2.16667"
      stroke-linecap="round" stroke-linejoin="round" />
  </g>
  <defs>
    <clipPath id="clip0_466_23849">
      <rect width="52" height="52" fill="white" transform="translate(52 52) rotate(-180)" />
    </clipPath>
  </defs>
</svg>