<svg width="40" height="40" viewBox="0 0 40 40" fill="none" xmlns="http://www.w3.org/2000/svg">
<rect x="4" y="3.99976" width="32" height="32" rx="4.8" fill="#25BCD6"/>
<path d="M21.7593 11.1795C22.3754 10.5748 23.2038 10.2386 24.0648 10.2437C24.9259 10.2488 25.7502 10.5948 26.3592 11.2067C26.9681 11.8186 27.3126 12.6471 27.3179 13.5126C27.3233 14.3781 26.989 15.2108 26.3876 15.8302L26.0236 16.1948L26.1387 16.3105C26.6405 16.8151 26.9224 17.4993 26.9224 18.2128C26.9224 18.9263 26.6405 19.6105 26.1387 20.1151L24.2113 22.0523C24.0851 22.1749 23.9161 22.2427 23.7406 22.2411C23.5651 22.2396 23.3973 22.1689 23.2732 22.0442C23.1491 21.9194 23.0787 21.7507 23.0772 21.5744C23.0757 21.398 23.1431 21.2281 23.2651 21.1012L25.1924 19.1639C25.4433 18.9117 25.5843 18.5695 25.5843 18.2128C25.5843 17.8561 25.4433 17.514 25.1924 17.2617L25.0773 17.146L17.5205 24.743C17.4344 24.8291 17.3266 24.89 17.2086 24.9192L11.8549 26.2645C11.7386 26.2936 11.6168 26.2907 11.502 26.2562C11.3872 26.2218 11.2837 26.157 11.2024 26.0686C11.121 25.9802 11.0648 25.8715 11.0395 25.7538C11.0141 25.6361 11.0207 25.5138 11.0585 25.3995L12.7316 20.3546C12.7642 20.2558 12.8192 20.166 12.8922 20.0922L21.7593 11.1795V11.1795ZM25.44 12.1306C25.0774 11.7667 24.5859 11.5623 24.0735 11.5623C23.561 11.5623 23.0695 11.7667 22.7069 12.1306L13.9509 20.9304L12.7128 24.6623L16.704 23.66L25.44 14.8791C25.8025 14.5146 26.0061 14.0203 26.0061 13.5049C26.0061 12.9895 25.8025 12.4952 25.44 12.1306V12.1306Z" fill="white"/>
<path d="M16.3335 28.9756C14.6805 28.9756 13.3782 28.2142 12.5123 27.4863L14.2308 27.0558C14.8278 27.3908 15.5331 27.6303 16.3322 27.6303C16.8756 27.6303 17.435 27.4097 18.032 27.0155C18.6303 26.6213 19.2071 26.0912 19.7907 25.5424L19.9419 25.3984C20.4572 24.9127 20.9913 24.4069 21.5025 24.0585C22.0486 23.6845 22.774 23.3454 23.5329 23.6401C24.0362 23.8338 24.3628 24.1917 24.5916 24.6302C24.8071 25.0419 24.9557 25.5558 25.1002 26.1168C25.1672 26.3724 25.2783 26.62 25.4081 26.7868C25.4498 26.8456 25.5014 26.8966 25.5607 26.9374C25.5941 26.9576 25.6088 26.9576 25.6129 26.9576C25.7762 26.9576 26.0559 26.8473 26.4561 26.5729C26.7037 26.4034 26.9165 26.2338 27.128 26.063C27.2591 25.9581 27.3916 25.8518 27.5322 25.7468C27.9056 25.4657 28.2282 25.2773 28.4651 25.1576C28.5863 25.0958 28.7104 25.0401 28.8372 24.9908L28.8639 24.98L28.8733 24.9773L28.8773 24.976H28.8786L29.0928 25.6123L28.88 24.9746C29.0474 24.9199 29.2296 24.9336 29.387 25.013C29.5444 25.0923 29.6643 25.2307 29.7208 25.3983C29.7774 25.5659 29.7659 25.7492 29.6889 25.9084C29.6119 26.0675 29.4757 26.1898 29.3096 26.2486L29.3043 26.2513C29.2246 26.2837 29.1465 26.3196 29.07 26.359C28.896 26.4451 28.6404 26.593 28.3339 26.8244C28.2549 26.8823 28.1532 26.9644 28.0354 27.0585C27.7932 27.2509 27.488 27.4944 27.2083 27.6854C26.7934 27.9707 26.2165 28.3043 25.6129 28.3043C25.0293 28.3043 24.6077 27.9478 24.3467 27.6088C24.0925 27.2634 23.9083 26.8712 23.8046 26.4545C23.6574 25.8854 23.5423 25.5128 23.4085 25.2571C23.288 25.0311 23.1809 24.945 23.0524 24.8939C22.9427 24.8536 22.7245 24.8495 22.2561 25.171C21.8371 25.4563 21.3794 25.8881 20.84 26.398L20.7062 26.5231C20.1293 27.0679 19.4748 27.6733 18.7668 28.1402C18.0574 28.6083 17.241 28.9756 16.3335 28.9756V28.9756Z" fill="white"/>
</svg>
