<svg viewBox="0 0 92 28" fill="none" xmlns="http://www.w3.org/2000/svg">
  <path
    d="M17.2528 12.0911C16.3671 12.0911 15.5232 12.5105 15.0509 13.1614C14.5621 12.477 13.7528 12.0911 12.7808 12.0911C12.1569 12.0911 11.5614 12.2933 11.1102 12.6467V12.0947H9.40625V18.9079H11.1102V15.1785C11.1102 14.1752 11.6058 13.6226 12.5058 13.6226C13.3981 13.6226 13.8898 14.1752 13.8898 15.1785V18.908H15.5821V15.1785C15.5821 14.1752 16.0777 13.6226 16.9776 13.6226C17.87 13.6226 18.3617 14.1752 18.3617 15.1785V18.908H20.0538V14.9837C20.0538 13.2264 18.9545 12.0911 17.2528 12.0911Z"
    fill="#001D3D" />
  <path
    d="M24.606 12.0911C22.6502 12.0911 21.2305 13.5248 21.2305 15.5001C21.2305 17.514 22.5953 18.9205 24.5495 18.9205C26.5382 18.9205 27.9817 17.4821 27.9817 15.5001C27.9816 13.5248 26.5619 12.0911 24.606 12.0911ZM24.5495 17.4047C23.7707 17.4047 22.9385 16.9043 22.9385 15.5001C22.9385 14.6269 23.3693 13.6069 24.5833 13.6069C25.7428 13.6069 26.2619 14.5577 26.2619 15.5001C26.2621 16.8157 25.4019 17.4047 24.5496 17.4047H24.5495Z"
    fill="#001D3D" />
  <path
    d="M50.6246 11.9453C50.6246 11.3253 50.8221 11.1459 51.5043 11.1459H51.7025V9.66016H51.5043C49.7339 9.66016 48.9096 10.386 48.9096 11.9453V12.0946H48.1641V13.5576H48.9096V18.9079H50.6246V13.5576H51.7943V12.0946H50.6246V11.9453Z"
    fill="#001D3D" />
  <path d="M54.6802 12.0947H52.9766V18.9079H54.6802V12.0947Z" fill="#001D3D" />
  <path
    d="M53.8398 9.68317C53.6347 9.68089 53.4331 9.73964 53.2614 9.85202C53.0897 9.96436 52.9552 10.1253 52.8752 10.3142C52.7949 10.5032 52.7729 10.7117 52.8115 10.9133C52.8498 11.1149 52.9476 11.3004 53.092 11.4464C53.2364 11.5923 53.421 11.6921 53.6219 11.733C53.8231 11.7739 54.032 11.754 54.2218 11.676C54.4117 11.598 54.5739 11.4653 54.6884 11.2948C54.8025 11.1243 54.8635 10.9237 54.8635 10.7184C54.865 10.5831 54.8396 10.4487 54.7888 10.3232C54.7381 10.1977 54.663 10.0836 54.5679 9.98729C54.4724 9.89102 54.359 9.81457 54.2343 9.76238C54.1093 9.71016 53.9751 9.68324 53.8398 9.68317Z"
    fill="#001D3D" />
  <path
    d="M59.2474 12.0911C58.6175 12.0911 58.0179 12.2935 57.5654 12.6473V12.0947H55.8613V18.9079H57.5654V15.1785C57.5654 14.1752 58.0607 13.6226 58.9605 13.6226C59.8531 13.6226 60.3447 14.1752 60.3447 15.1785V18.908H62.037V14.9837C62.037 13.2264 60.942 12.0911 59.2474 12.0911Z"
    fill="#001D3D" />
  <path
    d="M37.0086 12.0911C36.1228 12.0911 35.279 12.5105 34.8065 13.1614C34.3176 12.477 33.5085 12.0911 32.5365 12.0911C31.9124 12.0911 31.3173 12.2933 30.8659 12.6467V12.0947H29.1621V18.9079H30.8659V15.1785C30.8659 14.1752 31.3615 13.6226 32.2614 13.6226C33.1538 13.6226 33.6454 14.1752 33.6454 15.1785V18.908H35.3377V15.1785C35.3377 14.1752 35.8334 13.6226 36.7333 13.6226C37.6259 13.6226 38.1174 14.1752 38.1174 15.1785V18.908H39.8097V14.9837C39.8097 13.2264 38.7101 12.0911 37.0086 12.0911Z"
    fill="#001D3D" />
  <path
    d="M44.3638 12.0911C42.4077 12.0911 40.9883 13.5248 40.9883 15.5001C40.9883 17.514 42.3527 18.9205 44.3073 18.9205C46.296 18.9205 47.7393 17.4821 47.7393 15.5001C47.7393 13.5248 46.3195 12.0911 44.3638 12.0911ZM44.3073 17.4047C43.5284 17.4047 42.6965 16.9043 42.6965 15.5001C42.6965 14.6269 43.1271 13.6069 44.341 13.6069C45.5008 13.6069 46.0197 14.5577 46.0197 15.5001C46.0197 16.8157 45.1597 17.4047 44.3073 17.4047Z"
    fill="#001D3D" />
  <path
    d="M73.9177 17.9282C74.1084 18.0817 74.3104 18.2227 74.5226 18.3497C75.6748 19.0389 77.0453 19.2659 78.3582 18.9847C79.6712 18.7037 80.8287 17.9354 81.5977 16.8349C82.3663 15.7343 82.6896 14.3832 82.5016 13.0539C82.314 11.7246 81.6291 10.5159 80.5853 9.67137C79.5415 8.82685 78.2165 8.40933 76.8774 8.50291C75.538 8.59648 74.2838 9.19419 73.3678 10.1756C72.8042 10.7793 72.3941 11.5006 72.1621 12.2789H74.4305C74.5594 12.0393 74.7193 11.8154 74.9081 11.6133C75.4603 11.0216 76.2164 10.6612 77.0241 10.6048C77.8318 10.5483 78.6308 10.8001 79.2599 11.3092C79.8891 11.8184 80.3018 12.5472 80.4152 13.3486C80.5285 14.1501 80.3337 14.9647 79.8701 15.6283C79.4066 16.2918 78.7088 16.755 77.9171 16.9245C77.1257 17.094 76.2991 16.9571 75.6043 16.5416C75.3727 16.4029 75.1613 16.2367 74.9744 16.048C74.7807 16.5858 74.5158 17.0988 74.1849 17.5728C74.0996 17.6946 74.0106 17.8131 73.9177 17.9282Z"
    fill="#0068D6" />
  <path
    d="M72.4489 9.69434C71.7212 9.10971 70.8464 8.72558 69.9118 8.58966C68.6671 8.40868 67.3989 8.67968 66.3369 9.35353C65.2753 10.0274 64.4899 11.0595 64.1242 12.2625C63.7581 13.4656 63.8354 14.76 64.3421 15.9109C64.8489 17.0618 65.7513 17.9931 66.8861 18.5357C68.0205 19.0783 69.3118 19.1963 70.5261 18.8684C71.7401 18.5405 72.7964 17.7883 73.5037 16.7483C74.2105 15.7083 74.5213 14.4494 74.3796 13.2L74.3788 13.2L74.3841 13.1825H69.8522L68.8354 15.274H71.9577C71.9031 15.377 71.8428 15.4774 71.7769 15.5746C71.3505 16.2017 70.7134 16.6552 69.9815 16.8529C69.2496 17.0506 68.4707 16.9794 67.787 16.6523C67.1029 16.3251 66.5586 15.7637 66.2531 15.0698C65.9476 14.3759 65.901 13.5955 66.1216 12.8701C66.3426 12.1447 66.8156 11.5225 67.4561 11.1162C68.0963 10.7099 68.8607 10.5465 69.6112 10.6556C70.2707 10.7515 70.8805 11.0524 71.3569 11.5121C71.6158 10.8475 71.9853 10.2331 72.4489 9.69434Z"
    fill="#0068D6" />
</svg>