<svg class="w-10" viewBox="0 0 25 24" fill="none" xmlns="http://www.w3.org/2000/svg">
    <rect x="0.25" width="24" height="24" rx="5.07263" fill="#3176BF" />
    <path
        d="M13.5747 5.38058C14.0367 4.92709 14.658 4.67493 15.3038 4.67875C15.9496 4.68258 16.5678 4.94209 17.0246 5.40102C17.4813 5.85995 17.7396 6.48133 17.7436 7.13044C17.7476 7.77955 17.4969 8.40408 17.0459 8.86866L16.7728 9.1421L16.8592 9.22887C17.2356 9.6073 17.447 10.1205 17.447 10.6556C17.447 11.1907 17.2356 11.7039 16.8592 12.0823L15.4137 13.5352C15.319 13.6271 15.1922 13.678 15.0606 13.6768C14.929 13.6757 14.8031 13.6226 14.7101 13.5291C14.617 13.4356 14.5642 13.309 14.5631 13.1767C14.5619 13.0445 14.6125 12.917 14.704 12.8219L16.1495 11.3689C16.3377 11.1797 16.4434 10.9231 16.4434 10.6556C16.4434 10.388 16.3377 10.1314 16.1495 9.94222L16.0631 9.85545L10.3955 15.5532C10.331 15.6178 10.2501 15.6635 10.1617 15.6854L6.14635 16.6944C6.05915 16.7161 5.96775 16.714 5.88166 16.6881C5.79558 16.6623 5.71798 16.6137 5.65696 16.5474C5.59594 16.4811 5.55374 16.3996 5.53476 16.3113C5.51579 16.2231 5.52073 16.1313 5.54907 16.0456L6.80385 12.2619C6.82833 12.1878 6.86956 12.1205 6.92431 12.0651L13.5747 5.38058ZM16.3352 6.09394C16.0632 5.82099 15.6946 5.66768 15.3103 5.66768C14.9259 5.66768 14.5573 5.82099 14.2854 6.09394L7.71834 12.6937L6.7898 15.4927L9.78321 14.741L16.3352 8.1553C16.607 7.8819 16.7598 7.51117 16.7598 7.12462C16.7598 6.73807 16.607 6.36734 16.3352 6.09394Z"
        fill="white" />
    <path
        d="M9.50069 18.732C8.26096 18.732 7.28424 18.161 6.63477 17.6151L7.92368 17.2922C8.37138 17.5435 8.9004 17.7231 9.49968 17.7231C9.90724 17.7231 10.3268 17.5576 10.7745 17.2619C11.2233 16.9663 11.6559 16.5688 12.0936 16.1571L12.207 16.0491C12.5935 15.6849 12.994 15.3055 13.3775 15.0442C13.787 14.7637 14.3311 14.5094 14.9003 14.7304C15.2777 14.8757 15.5226 15.1441 15.6943 15.473C15.8559 15.7818 15.9673 16.1672 16.0757 16.5879C16.1259 16.7796 16.2093 16.9653 16.3066 17.0904C16.3379 17.1345 16.3767 17.1728 16.4211 17.2034C16.4462 17.2186 16.4572 17.2186 16.4602 17.2186C16.5827 17.2186 16.7925 17.1358 17.0926 16.93C17.2783 16.8029 17.4379 16.6757 17.5965 16.5476C17.6949 16.4689 17.7943 16.3892 17.8997 16.3105C18.1798 16.0996 18.4217 15.9583 18.5994 15.8685C18.6903 15.8222 18.7834 15.7804 18.8784 15.7434L18.8985 15.7353L18.9055 15.7333L18.9085 15.7323H18.9095L19.0702 16.2096L18.9106 15.7313C19.0361 15.6902 19.1727 15.7006 19.2908 15.7601C19.4088 15.8195 19.4988 15.9234 19.5412 16.0491C19.5836 16.1748 19.575 16.3122 19.5173 16.4316C19.4595 16.551 19.3573 16.6427 19.2328 16.6868L19.2288 16.6888C19.169 16.7131 19.1104 16.74 19.0531 16.7696C18.9226 16.8341 18.7309 16.9451 18.501 17.1187C18.4418 17.1621 18.3655 17.2236 18.2771 17.2942C18.0954 17.4385 17.8666 17.6211 17.6568 17.7644C17.3456 17.9783 16.9129 18.2286 16.4602 18.2286C16.0225 18.2286 15.7063 17.9612 15.5106 17.7069C15.3199 17.4479 15.1818 17.1538 15.104 16.8412C14.9936 16.4144 14.9073 16.1349 14.8069 15.9432C14.7166 15.7737 14.6363 15.7091 14.5399 15.6708C14.4576 15.6405 14.294 15.6375 13.9426 15.8786C13.6284 16.0925 13.2851 16.4164 12.8806 16.7988L12.7802 16.8927C12.3475 17.3013 11.8567 17.7553 11.3256 18.1055C10.7936 18.4566 10.1813 18.732 9.50069 18.732Z"
        fill="white" />
</svg>