<svg viewBox="0 0 100 100" fill="none" xmlns="http://www.w3.org/2000/svg">
    <rect width="100" height="100" rx="50" fill="#0067D6" />
    <path
        d="M65.625 40V43.8617C65.2215 43.83 64.8047 43.8053 64.375 43.7868V40C64.375 36.0062 63.8259 32.3364 61.6093 29.683C59.3499 26.9783 55.622 25.625 50 25.625C44.378 25.625 40.6501 26.9783 38.3907 29.683C36.1741 32.3364 35.625 36.0062 35.625 40V43.7868C35.1953 43.8053 34.7785 43.83 34.375 43.8617V40C34.375 36.428 34.8182 32.5435 36.9133 29.5625C38.9446 26.6723 42.7216 24.375 50 24.375C57.2784 24.375 61.0554 26.6723 63.0867 29.5625C65.1818 32.5435 65.625 36.428 65.625 40Z"
        stroke="white" stroke-width="2.5" />
    <path
        d="M66.7061 46.4885L66.7151 46.4898L66.7242 46.4909C69.7334 46.8567 71.3281 47.7335 72.2764 49.2099C73.2981 50.8007 73.75 53.3403 73.75 57.5V62.5C73.75 67.5089 73.0936 70.1386 71.6161 71.6161C70.1386 73.0936 67.5089 73.75 62.5 73.75H37.5C32.4911 73.75 29.8614 73.0936 28.3839 71.6161C26.9064 70.1386 26.25 67.5089 26.25 62.5V57.5C26.25 53.3403 26.7019 50.8007 27.7236 49.2099C28.6719 47.7335 30.2666 46.8567 33.2759 46.4909L33.2849 46.4898L33.2939 46.4885C34.325 46.3479 35.5183 46.2747 36.8862 46.25H63.1138C64.4817 46.2747 65.675 46.3479 66.7061 46.4885ZM42.6347 62.6824L42.6592 62.6592L42.6824 62.6347C43.3375 61.9433 43.75 60.9909 43.75 60C43.75 59.4854 43.6321 58.9971 43.4538 58.5692C43.2727 58.1344 43.0202 57.74 42.7041 57.3888L42.6821 57.3644L42.6589 57.3411C41.6095 56.2917 39.977 55.9491 38.5775 56.5426C38.082 56.7371 37.7104 57.0064 37.3888 57.2959L37.3399 57.3399L37.2959 57.3888C36.9798 57.74 36.7273 58.1344 36.5462 58.5692C36.3679 58.9971 36.25 59.4854 36.25 60C36.25 60.9909 36.6625 61.9433 37.3176 62.6347L37.3518 62.6708L37.3888 62.7041C37.7121 62.9951 38.0857 63.2656 38.585 63.4604C39.0091 63.635 39.4917 63.75 40 63.75C40.9909 63.75 41.9433 63.3375 42.6347 62.6824ZM52.6347 62.6824L52.6708 62.6482L52.7041 62.6112C53.0202 62.26 53.2727 61.8656 53.4538 61.4308C53.6321 61.0029 53.75 60.5146 53.75 60C53.75 58.9777 53.3328 58.0518 52.6824 57.3653L52.6651 57.347L52.647 57.3294C51.2183 55.9383 48.7607 55.9216 47.3411 57.3411L47.3292 57.3531L47.3176 57.3653C46.6672 58.0518 46.25 58.9777 46.25 60C46.25 60.5146 46.3679 61.0029 46.5462 61.4308C46.7273 61.8656 46.9798 62.26 47.2959 62.6112L47.3292 62.6482L47.3653 62.6824C48.0518 63.3328 48.9777 63.75 50 63.75C50.9909 63.75 51.9433 63.3375 52.6347 62.6824ZM62.6347 62.6824L62.6592 62.6592L62.6824 62.6347C63.3375 61.9433 63.75 60.9909 63.75 60C63.75 59.7582 63.7135 59.5046 63.6914 59.3509C63.69 59.3413 63.6887 59.332 63.6874 59.3232L63.6854 59.3088L63.683 59.2945C63.6404 59.0393 63.5618 58.797 63.4559 58.5695C63.3742 58.3482 63.2554 58.112 63.0881 57.8916C62.9671 57.7141 62.8493 57.5669 62.7595 57.4546L62.7511 57.4441L62.7078 57.3901L62.6589 57.3411C61.2393 55.9216 58.7817 55.9383 57.353 57.3294L57.3349 57.347L57.3176 57.3653C56.6672 58.0518 56.25 58.9777 56.25 60C56.25 61.0223 56.6672 61.9482 57.3176 62.6347L57.3408 62.6592L57.3653 62.6824C58.0567 63.3375 59.0091 63.75 60 63.75C60.9909 63.75 61.9433 63.3375 62.6347 62.6824Z"
        fill="white" stroke="white" stroke-width="2.5" />
</svg>