<svg viewBox="0 0 21 20" fill="none" xmlns="http://www.w3.org/2000/svg">
  <path
    d="M13.9917 1.66699H7.00841C3.97508 1.66699 2.16675 3.47533 2.16675 6.50866V13.4837C2.16675 16.5253 3.97508 18.3337 7.00841 18.3337H13.9834C17.0167 18.3337 18.8251 16.5253 18.8251 13.492V6.50866C18.8334 3.47533 17.0251 1.66699 13.9917 1.66699ZM14.5167 9.01699C14.2751 9.25866 13.8751 9.25866 13.6334 9.01699L11.1251 6.50866V15.0003C11.1251 15.342 10.8417 15.6253 10.5001 15.6253C10.1584 15.6253 9.87508 15.342 9.87508 15.0003V6.50866L7.36675 9.01699C7.12508 9.25866 6.72508 9.25866 6.48341 9.01699C6.35841 8.89199 6.30008 8.73366 6.30008 8.57533C6.30008 8.41699 6.36675 8.25033 6.48341 8.13366L10.0584 4.55866C10.1751 4.44199 10.3334 4.37533 10.5001 4.37533C10.6667 4.37533 10.8251 4.44199 10.9417 4.55866L14.5167 8.13366C14.7584 8.37533 14.7584 8.76699 14.5167 9.01699Z"
    fill="white" />
</svg>