<svg width="20" height="20" viewBox="0 0 20 20" fill="none" xmlns="http://www.w3.org/2000/svg">
  <path
    d="M7.63338 9.05834C7.55005 9.05001 7.45005 9.05001 7.35838 9.05834C5.37505 8.99167 3.80005 7.36667 3.80005 5.36667C3.80005 3.32501 5.45005 1.66667 7.50005 1.66667C9.54172 1.66667 11.2 3.32501 11.2 5.36667C11.1917 7.36667 9.61671 8.99167 7.63338 9.05834Z"
    stroke="#64748B" stroke-width="1.5" stroke-linecap="round" stroke-linejoin="round" />
  <path
    d="M13.675 3.33333C15.2916 3.33333 16.5917 4.64166 16.5917 6.25C16.5917 7.825 15.3417 9.10833 13.7833 9.16666C13.7167 9.15833 13.6417 9.15833 13.5667 9.16666"
    stroke="#64748B" stroke-width="1.5" stroke-linecap="round" stroke-linejoin="round" />
  <path
    d="M3.4666 12.1333C1.44993 13.4833 1.44993 15.6833 3.4666 17.025C5.75827 18.5583 9.5166 18.5583 11.8083 17.025C13.8249 15.675 13.8249 13.475 11.8083 12.1333C9.52494 10.6083 5.7666 10.6083 3.4666 12.1333Z"
    stroke="#64748B" stroke-width="1.5" stroke-linecap="round" stroke-linejoin="round" />
  <path
    d="M15.2834 16.6667C15.8834 16.5417 16.4501 16.3 16.9168 15.9417C18.2168 14.9667 18.2168 13.3583 16.9168 12.3833C16.4584 12.0333 15.9001 11.8 15.3084 11.6667"
    stroke="#64748B" stroke-width="1.5" stroke-linecap="round" stroke-linejoin="round" />
</svg>